<svg xmlns="http://www.w3.org/2000/svg" viewBox="0 0 512 512">
  <rect width="512" height="512" rx="96" fill="#7bd957"/>
  <circle cx="386" cy="118" r="58" fill="#ffd95a"/>
  <path d="M64 184c46-54 105-76 178-66 82 12 133 61 206 58v220H64z" fill="#4fa33a"/>
  <path d="M96 256h320v160H96z" rx="18" fill="#9b633d"/>
  <path d="M116 278h280M116 326h280M116 374h280" stroke="#72452d" stroke-width="18" stroke-linecap="round"/>
  <path d="M252 252c-42-58-25-112 56-155 13 91-7 139-56 155z" fill="#2f914b"/>
  <path d="M248 260c-58-28-79-75-42-141 68 48 82 95 42 141z" fill="#69bd45"/>
  <circle cx="250" cy="260" r="28" fill="#f05d45"/>
  <path d="M208 434h96" stroke="#fff2b8" stroke-width="24" stroke-linecap="round"/>
</svg>
